<svg xmlns="http://www.w3.org/2000/svg" width="147" height="55" viewBox="0 0 147 55" fill="none"><g clip-path="url(#clip0_2190_1102)"><g clip-path="url(#clip1_2190_1102)"><mask id="mask0_2190_1102" style="mask-type:luminance" maskUnits="userSpaceOnUse" x="0" y="0" width="147" height="55"><path d="M146.885 0H0V54.6H146.885V0Z" fill="white"></path></mask><g mask="url(#mask0_2190_1102)"><path d="M27.3002 5.69001V18.41C27.3002 20.7678 26.3636 23.029 24.6964 24.6962C23.0292 26.3634 20.7679 27.3 18.4102 27.3H15.9102V5.69001C15.9102 4.18093 16.5097 2.73366 17.5767 1.66657C18.6438 0.599491 20.0911 8.78813e-06 21.6002 8.78813e-06C22.3482 -0.00130591 23.0892 0.1449 23.7807 0.430261C24.4722 0.715621 25.1007 1.13454 25.6301 1.66303C26.1595 2.19153 26.5795 2.81924 26.8661 3.51023C27.1527 4.20123 27.3002 4.94195 27.3002 5.69001Z" fill="#0067D3"></path><path d="M48.5699 27.3002H36.1249C34.9654 27.3002 33.8171 27.0718 32.7458 26.628C31.6745 26.1843 30.7011 25.5339 29.8812 24.7139C29.0612 23.894 28.4108 22.9206 27.9671 21.8493C27.5233 20.778 27.2949 19.6297 27.2949 18.4702V15.9202H48.5699C50.0684 15.9202 51.5054 16.5154 52.5649 17.575C53.6244 18.6346 54.2199 20.0717 54.2199 21.5702V21.6502C54.2199 23.1486 53.6244 24.5857 52.5649 25.6453C51.5054 26.7049 50.0684 27.3002 48.5699 27.3002Z" fill="#0067D3"></path><path d="M27.2998 48.9102V36.1902C27.3038 33.835 28.2422 31.5776 29.9089 29.9137C31.5757 28.2497 33.8346 27.3152 36.1898 27.3152H38.6898V48.9102C38.6898 50.4192 38.0903 51.8667 37.0233 52.9337C35.9562 54.0007 34.5089 54.6002 32.9998 54.6002C31.4907 54.6002 30.0435 54.0007 28.9764 52.9337C27.9093 51.8667 27.3098 50.4192 27.3098 48.9102H27.2998Z" fill="#0067D3"></path><path d="M5.69001 27.3H18.41C20.7678 27.3 23.029 28.2366 24.6962 29.9038C26.3634 31.571 27.3 33.8322 27.3 36.19V38.69H5.69001C4.18092 38.69 2.73365 38.0905 1.66657 37.0235C0.59949 35.9564 8.78812e-06 34.5091 8.78812e-06 33C-0.00130591 32.252 0.1449 31.511 0.430261 30.8195C0.71562 30.128 1.13453 29.4995 1.66303 28.9701C2.19153 28.4407 2.81923 28.0207 3.51023 27.7341C4.20122 27.4475 4.94194 27.3 5.69001 27.3Z" fill="#0067D3"></path><path d="M27.2998 48.9102V36.1902C27.3038 33.835 28.2422 31.5776 29.9089 29.9137C31.5757 28.2497 33.8346 27.3152 36.1898 27.3152H38.6898V48.9102C38.6898 50.4192 38.0903 51.8667 37.0233 52.9337C35.9562 54.0007 34.5089 54.6002 32.9998 54.6002C32.2518 54.6017 31.5108 54.4552 30.8193 54.1697C30.1278 53.8847 29.4993 53.4657 28.9699 52.9372C28.4405 52.4087 28.0205 51.7812 27.7339 51.0902C27.4473 50.3992 27.2998 49.6582 27.2998 48.9102Z" fill="url(#paint0_linear_2190_1102)"></path><path d="M5.69001 27.3H18.41C20.7678 27.3 23.029 28.2366 24.6962 29.9038C26.3634 31.571 27.3 33.8322 27.3 36.19V38.69H5.69001C4.18092 38.69 2.73365 38.0905 1.66657 37.0235C0.59949 35.9564 8.78812e-06 34.5091 8.78812e-06 33C-0.00130591 32.252 0.1449 31.511 0.430261 30.8195C0.71562 30.128 1.13453 29.4995 1.66303 28.9701C2.19153 28.4407 2.81923 28.0207 3.51023 27.7341C4.20122 27.4475 4.94194 27.3 5.69001 27.3Z" fill="url(#paint1_linear_2190_1102)"></path><path d="M27.3002 5.68512V18.4101C27.3002 20.7679 26.3636 23.0291 24.6964 24.6963C23.0292 26.3635 20.7679 27.3001 18.4102 27.3001H15.9102V5.68512C15.9102 4.17604 16.5097 2.72876 17.5767 1.66168C18.6438 0.594598 20.0911 -0.00488281 21.6002 -0.00488281C23.1093 -0.00488281 24.5565 0.594598 25.6236 1.66168C26.6907 2.72876 27.2902 4.17604 27.2902 5.68512H27.3002Z" fill="url(#paint2_linear_2190_1102)"></path><path d="M48.9099 27.3002H36.1899C35.0204 27.3035 33.8617 27.0759 32.7802 26.6307C31.6987 26.1854 30.7157 25.5311 29.8876 24.7052C29.0594 23.8794 28.4023 22.8982 27.954 21.818C27.5057 20.7378 27.2749 19.5797 27.2749 18.4102V15.9102H48.9099C50.4189 15.9102 51.8664 16.5097 52.9334 17.5767C54.0004 18.6438 54.5999 20.0911 54.5999 21.6002C54.6014 22.3482 54.4549 23.0892 54.1694 23.7807C53.8844 24.4722 53.4654 25.1007 52.9369 25.6301C52.4084 26.1595 51.7809 26.5795 51.0899 26.8661C50.3989 27.1527 49.658 27.3002 48.9099 27.3002Z" fill="url(#paint3_linear_2190_1102)"></path><path d="M48.9099 38.6752H27.2749V36.1752C27.2749 33.8174 28.2115 31.5562 29.8787 29.889C31.5459 28.2218 33.8071 27.2852 36.1649 27.2852H48.9099C50.4189 27.2852 51.8664 27.8847 52.9334 28.9517C54.0004 30.0188 54.5999 31.4661 54.5999 32.9752C54.6014 33.7232 54.4549 34.4642 54.1694 35.1557C53.8844 35.8472 53.4654 36.4757 52.9369 37.0051C52.4084 37.5345 51.7809 37.9545 51.0899 38.2411C50.3989 38.5277 49.658 38.6752 48.9099 38.6752Z" fill="url(#paint4_linear_2190_1102)"></path><path d="M38.6748 6.03013V27.3001H36.1248C33.7847 27.2988 31.5408 26.3686 29.8861 24.7139C28.2313 23.0592 27.3011 20.8153 27.2998 18.4751V6.03013C27.2998 4.53165 27.8951 3.09455 28.9547 2.03497C30.0143 0.975395 31.4513 0.380127 32.9498 0.380127H33.0298C34.5274 0.381452 35.9632 0.977304 37.0217 2.03674C38.0802 3.09618 38.6748 4.53252 38.6748 6.03013Z" fill="url(#paint5_linear_2190_1102)"></path><path d="M5.69 15.925H27.3V18.425C27.296 20.7802 26.3577 23.0376 24.6909 24.7015C23.0241 26.3655 20.7652 27.3 18.41 27.3H5.69C4.18092 27.3 2.73364 26.7005 1.66656 25.6335C0.59948 24.5664 0 23.1191 0 21.61C0.00132532 20.1018 0.60139 18.6558 1.66833 17.5898C2.73527 16.5238 4.18179 15.925 5.69 15.925Z" fill="url(#paint6_linear_2190_1102)"></path><path d="M15.9248 48.9152V27.3052H18.4248C20.7826 27.3052 23.0438 28.2418 24.711 29.909C26.3782 31.5762 27.3148 33.8374 27.3148 36.1952V48.9152C27.3148 50.4242 26.7153 51.8717 25.6483 52.9387C24.5812 54.0057 23.1339 54.6052 21.6248 54.6052C20.1157 54.6052 18.6685 54.0057 17.6014 52.9387C16.5343 51.8717 15.9348 50.4242 15.9348 48.9152H15.9248Z" fill="url(#paint7_linear_2190_1102)"></path><path d="M27.2598 29.8402C28.8256 29.8402 30.0948 28.5709 30.0948 27.0052C30.0948 25.4394 28.8256 24.1702 27.2598 24.1702C25.6941 24.1702 24.4248 25.4394 24.4248 27.0052C24.4248 28.5709 25.6941 29.8402 27.2598 29.8402Z" fill="#00A9EE"></path><path d="M64.5449 27V11.245H72.8499C73.5809 11.2396 74.3064 11.3701 74.9899 11.63C75.9454 11.9939 76.7664 12.642 77.3419 13.4868C77.9179 14.3317 78.2204 15.3327 78.2099 16.355C78.2179 17.0428 78.0794 17.7244 77.8049 18.355C77.5439 18.9572 77.1609 19.4986 76.6799 19.945C76.1819 20.3941 75.6054 20.7483 74.9799 20.99C74.2999 21.2487 73.5774 21.3776 72.8499 21.37H68.4149V27.02L64.5449 27ZM72.3999 14.555H68.3999V18.155H72.3999C72.9029 18.1732 73.3929 17.9937 73.7649 17.655C73.9389 17.4906 74.0759 17.2909 74.1664 17.0693C74.2569 16.8477 74.2989 16.6093 74.2899 16.37C74.2989 16.1264 74.2569 15.8835 74.1664 15.6571C74.0759 15.4306 73.9394 15.2255 73.7649 15.055C73.3934 14.715 72.9029 14.5353 72.3999 14.555ZM79.1249 27V11.245H91.5499V14.6H82.9999V17.42H88.6249V20.66H82.9749V23.66H91.6249V27.01L79.1249 27ZM99.7149 27H95.6249L92.1249 11.245H96.1249L98.0399 20.97L100.785 11.245H104.41L107.125 20.97L109.04 11.245H112.89L109.39 27H105.29L102.52 16.965L99.7149 27ZM113.915 11.245H117.56L124.72 20.385V11.245H128.365V27H124.945L117.56 17.5V27H113.915V11.245ZM129.005 27L135.465 11.245H139.895L146.27 27H142.08L140.64 23.2H134.48L133.015 27H129.005ZM135.665 20.115H139.49L137.6 15.07L135.665 20.115Z" fill="url(#paint8_linear_2190_1102)"></path><path d="M64.8149 32.465V30.39H73.4099V32.465H70.2849V39.92H67.9399V32.465H64.8149ZM74.3149 39.94V30.39H81.8449V32.42H76.6549V34.14H80.0799V36.105H76.6549V37.92H81.8949V39.92L74.3149 39.94ZM83.1249 39.92V30.37H88.0099C88.4729 30.3658 88.9329 30.4419 89.3699 30.595C89.7619 30.7345 90.1239 30.9485 90.4349 31.225C90.7299 31.4939 90.9669 31.8207 91.1299 32.185C91.2989 32.5728 91.3844 32.992 91.3799 33.415C91.3864 33.9909 91.2114 34.5541 90.8799 35.025C90.5679 35.4967 90.1344 35.8751 89.6249 36.12L91.7099 39.94H89.0899L87.2899 36.44H85.5049V39.94L83.1249 39.92ZM87.8049 32.42H85.4849V34.575H87.8049C88.1254 34.5889 88.4394 34.4818 88.6849 34.275C88.7929 34.1776 88.8784 34.0578 88.9354 33.924C88.9924 33.7901 89.0194 33.6454 89.0149 33.5C89.0204 33.3538 88.9934 33.2081 88.9364 33.0734C88.8794 32.9386 88.7934 32.818 88.6849 32.72C88.4394 32.5133 88.1254 32.4062 87.8049 32.42ZM91.7049 39.965L95.6199 30.415H98.3099L102.17 39.965H99.6249L98.7549 37.66H95.0299L94.1249 39.92L91.7049 39.965ZM95.7449 35.79H98.0649L96.9149 32.735L95.7449 35.79ZM102.745 39.965V30.415H107.78C108.222 30.4123 108.661 30.492 109.075 30.65C109.458 30.7925 109.809 31.012 110.105 31.295C110.393 31.5807 110.623 31.9205 110.78 32.295C110.947 32.685 111.031 33.1057 111.025 33.53C111.029 33.9345 110.949 34.3355 110.79 34.7074C110.63 35.0792 110.395 35.4139 110.1 35.69C109.799 35.9638 109.45 36.1792 109.07 36.325C108.658 36.4813 108.22 36.5593 107.78 36.555H105.075V39.92L102.745 39.965ZM107.49 32.42H105.075V34.605H107.49C107.793 34.6164 108.089 34.5088 108.315 34.305C108.422 34.2062 108.506 34.0851 108.561 33.9504C108.616 33.8157 108.641 33.6705 108.635 33.525C108.641 33.3774 108.615 33.2303 108.56 33.0932C108.505 32.9562 108.421 32.8324 108.315 32.73C108.204 32.6266 108.075 32.5461 107.933 32.4929C107.792 32.4397 107.641 32.4149 107.49 32.42ZM112.075 39.92V30.37H114.42V39.92H112.075ZM114.98 39.92L118.895 30.37H121.585L125.445 39.92H122.91L122.035 37.615H118.31L117.425 39.92H114.98ZM119.02 35.745H121.34L120.195 32.69L119.02 35.745Z" fill="url(#paint9_linear_2190_1102)"></path><path d="M142.645 39.9252H126.49V36.4602C126.493 34.7049 127.192 33.0224 128.434 31.7821C129.676 30.5418 131.36 29.8452 133.115 29.8452H142.645C143.202 29.8452 143.753 29.9549 144.268 30.168C144.782 30.3811 145.25 30.6934 145.643 31.0871C146.037 31.4808 146.349 31.9482 146.563 32.4627C146.776 32.9771 146.885 33.5284 146.885 34.0852V35.6952C146.883 36.818 146.435 37.8939 145.64 38.6869C144.845 39.4799 143.768 39.9252 142.645 39.9252Z" fill="#0067D3"></path><path d="M131.365 36.5452C131.565 36.5465 131.756 36.6264 131.897 36.7678C132.038 36.9091 132.118 37.1003 132.12 37.3002C132.116 37.4992 132.035 37.689 131.894 37.8298C131.754 37.9706 131.564 38.0513 131.365 38.0552C131.165 38.0539 130.974 37.9739 130.832 37.8326C130.691 37.6913 130.611 37.5 130.61 37.3002C130.609 37.2008 130.628 37.1024 130.666 37.0105C130.704 36.9186 130.759 36.8351 130.829 36.7648C130.9 36.6946 130.983 36.639 131.075 36.6013C131.167 36.5636 131.265 36.5445 131.365 36.5452Z" fill="white"></path><path d="M137.59 33.3851C137.495 33.1667 137.359 32.9683 137.19 32.8001C137.013 32.6321 136.804 32.5012 136.575 32.4151C136.329 32.3243 136.068 32.2785 135.805 32.2801H132.805V37.9651H134.2V35.9201H135.805C136.067 35.9229 136.327 35.8754 136.57 35.7801C136.796 35.6962 137.003 35.5688 137.18 35.4051C137.357 35.2456 137.497 35.0493 137.59 34.8301C137.69 34.6051 137.739 34.3611 137.735 34.1151C137.739 33.8643 137.689 33.6155 137.59 33.3851ZM136.125 34.5901C136.058 34.6521 135.979 34.7 135.894 34.7309C135.808 34.7619 135.716 34.7752 135.625 34.7701H134.185V33.4751H135.625C135.717 33.4688 135.808 33.4815 135.894 33.5125C135.98 33.5435 136.059 33.5921 136.125 33.6551C136.189 33.716 136.239 33.7899 136.272 33.8719C136.305 33.9538 136.32 34.0419 136.315 34.1301C136.32 34.216 136.305 34.3019 136.272 34.3815C136.239 34.4611 136.189 34.5323 136.125 34.5901Z" fill="white"></path><path d="M138.37 37.97V32.28H139.765V36.73H142.765V37.97H138.37Z" fill="white"></path></g></g></g><defs><linearGradient id="paint0_linear_2190_1102" x1="35.4348" y1="48.1202" x2="32.6448" y2="37.0902" gradientUnits="userSpaceOnUse"><stop stop-color="#0067D3"></stop><stop offset="1" stop-color="#004889"></stop></linearGradient><linearGradient id="paint1_linear_2190_1102" x1="6.48001" y1="35.43" x2="17.505" y2="32.635" gradientUnits="userSpaceOnUse"><stop stop-color="#0067D3"></stop><stop offset="1" stop-color="#004889"></stop></linearGradient><linearGradient id="paint2_linear_2190_1102" x1="19.1702" y1="6.48012" x2="21.9602" y2="17.5101" gradientUnits="userSpaceOnUse"><stop stop-color="#0067D3"></stop><stop offset="1" stop-color="#004889"></stop></linearGradient><linearGradient id="paint3_linear_2190_1102" x1="48.1199" y1="19.1652" x2="37.0899" y2="21.9552" gradientUnits="userSpaceOnUse"><stop stop-color="#0067D3"></stop><stop offset="1" stop-color="#004889"></stop></linearGradient><linearGradient id="paint4_linear_2190_1102" x1="30.5649" y1="32.9852" x2="49.0199" y2="32.9852" gradientUnits="userSpaceOnUse"><stop stop-color="#0067D3"></stop><stop offset="0.71" stop-color="#00A9EE"></stop></linearGradient><linearGradient id="paint5_linear_2190_1102" x1="32.9848" y1="27.3001" x2="32.9848" y2="0.380127" gradientUnits="userSpaceOnUse"><stop stop-color="#0067D3"></stop><stop offset="0.71" stop-color="#00A9EE"></stop></linearGradient><linearGradient id="paint6_linear_2190_1102" x1="27.3" y1="21.61" x2="0" y2="21.61" gradientUnits="userSpaceOnUse"><stop stop-color="#0067D3"></stop><stop offset="0.71" stop-color="#00A9EE"></stop></linearGradient><linearGradient id="paint7_linear_2190_1102" x1="21.6148" y1="27.3052" x2="21.6148" y2="54.6052" gradientUnits="userSpaceOnUse"><stop stop-color="#0067D3"></stop><stop offset="0.71" stop-color="#00A9EE"></stop></linearGradient><linearGradient id="paint8_linear_2190_1102" x1="146.255" y1="19.125" x2="64.5449" y2="19.125" gradientUnits="userSpaceOnUse"><stop stop-color="#0067D3"></stop><stop offset="1" stop-color="#004889"></stop></linearGradient><linearGradient id="paint9_linear_2190_1102" x1="125.445" y1="35.165" x2="64.8149" y2="35.165" gradientUnits="userSpaceOnUse"><stop offset="0.23" stop-color="#0067D3"></stop><stop offset="0.71" stop-color="#014F9A"></stop></linearGradient><clipPath id="clip0_2190_1102"><rect width="147" height="55" fill="white"></rect></clipPath><clipPath id="clip1_2190_1102"><rect width="147" height="55" fill="white"></rect></clipPath></defs></svg>